<svg xmlns="http://www.w3.org/2000/svg" width="164" height="164" viewBox="0 0 164 164" fill="none">
  <g clip-path="url(#clip0_223_7278)">
    <path d="M33.4354 134.278C64.6494 165.492 109.121 171.628 132.766 147.984L145.09 135.659L32.0544 22.623L19.7298 34.9477C-3.91488 58.5924 2.22132 103.064 33.4354 134.278Z" fill="#19AC4F"/>
    <ellipse cx="87.7522" cy="79.9613" rx="79.9286" ry="60.5459" transform="rotate(45 87.7522 79.9613)" fill="black"/>
    <g filter="url(#filter0_i_223_7278)">
      <path d="M133.842 130.308L37.4055 33.8714L44.1218 27.155L140.559 123.592L133.842 130.308ZM129.377 117.653C124.463 122.567 119.148 125.715 113.431 127.097C107.697 128.353 101.833 128.004 95.84 126.051C89.9012 124.044 84.1587 120.54 78.6123 115.54L90.0315 102.387C93.3208 105.021 96.5044 106.894 99.5821 108.006C102.66 109.118 105.56 109.397 108.281 108.843C110.985 108.161 113.593 106.564 116.105 104.053C118.125 102.032 119.557 100.023 120.398 98.0257C121.168 95.9559 121.258 93.9159 120.667 91.9057C120.131 89.841 118.888 87.8334 116.938 85.883C115.204 84.1493 113.359 82.96 111.404 82.315C109.431 81.5431 106.974 81.5437 104.034 82.3167C101.076 82.9628 97.3172 84.5549 92.7566 87.0928C86.452 90.5079 80.9225 92.7868 76.1679 93.9295C71.3411 95 66.8365 94.8091 62.6541 93.357C58.5264 91.8502 54.3315 88.9659 50.0695 84.7039C45.5908 80.2252 42.5002 75.4419 40.7978 70.354C39.0954 65.2661 38.8887 60.1995 40.1775 55.1543C41.4488 49.9822 44.2959 45.1847 48.7189 40.7618C53.4148 36.0658 58.4845 33.1632 63.9279 32.0541C69.3713 30.9449 74.9082 31.4037 80.5387 33.4303C86.2239 35.4023 91.8132 38.6982 97.3066 43.318L85.7527 56.1722C83.0059 53.8623 80.1932 52.1963 77.3145 51.1742C74.4905 50.0975 71.7449 49.8091 69.0778 50.309C66.4653 50.7544 64.067 52.0692 61.8828 54.2534C59.1526 56.9836 57.8264 59.9712 57.9044 63.2162C57.9101 66.3889 59.2132 69.2756 61.8137 71.8761C63.6919 73.7543 65.6087 75.0159 67.5643 75.6609C69.5022 76.179 71.787 76.0613 74.4188 75.3077C77.033 74.4272 80.3025 72.8914 84.2271 70.7004C90.8963 66.7763 96.8433 64.3689 102.068 63.4781C107.348 62.5328 112.124 62.8857 116.396 64.537C120.668 66.1882 124.719 68.9281 128.547 72.7567C133.243 77.4521 136.423 82.4344 138.088 87.7038C139.682 92.9009 139.752 98.1039 138.299 103.313C136.829 108.395 133.855 113.175 129.377 117.653Z" fill="white"/>
    </g>
  </g>
  <defs>
    <filter id="filter0_i_223_7278" x="34.4055" y="27.155" width="106.153" height="106.753" filterUnits="userSpaceOnUse" color-interpolation-filters="sRGB">
      <feFlood flood-opacity="0" result="BackgroundImageFix"/>
      <feBlend mode="normal" in="SourceGraphic" in2="BackgroundImageFix" result="shape"/>
      <feColorMatrix in="SourceAlpha" type="matrix" values="0 0 0 0 0 0 0 0 0 0 0 0 0 0 0 0 0 0 127 0" result="hardAlpha"/>
      <feOffset dx="-3" dy="4"/>
      <feGaussianBlur stdDeviation="1.8"/>
      <feComposite in2="hardAlpha" operator="arithmetic" k2="-1" k3="1"/>
      <feColorMatrix type="matrix" values="0 0 0 0 0 0 0 0 0 0 0 0 0 0 0 0 0 0 0.25 0"/>
      <feBlend mode="normal" in2="shape" result="effect1_innerShadow_223_7278"/>
    </filter>
    <clipPath id="clip0_223_7278">
      <rect width="164" height="164" fill="white"/>
    </clipPath>
  </defs>
</svg>
